<svg xmlns="http://www.w3.org/2000/svg" width="27.105" height="31.866" viewBox="0 0 27.105 31.866">
  <g id="avatar" transform="translate(-1430.825 -24.517)">
    <g id="Group_3" data-name="Group 3" transform="translate(1430.825 24.517)">
      <path id="Path_9" data-name="Path 9" d="M143.853,17.17h.211a6.089,6.089,0,0,0,4.652-2.013c2.541-2.864,2.118-7.773,2.072-8.242-.165-3.517-1.828-5.2-3.2-5.985a7.337,7.337,0,0,0-3.55-.93h-.112a7.348,7.348,0,0,0-3.55.9c-1.386.785-3.075,2.468-3.24,6.012-.046.469-.469,5.378,2.072,8.242A6.065,6.065,0,0,0,143.853,17.17ZM138.9,7.081c0-.02.007-.04.007-.053.218-4.731,3.577-5.239,5.015-5.239H144c1.782.04,4.811.765,5.015,5.239a.128.128,0,0,0,.007.053c.007.046.469,4.533-1.63,6.9a4.325,4.325,0,0,1-3.4,1.412h-.066a4.311,4.311,0,0,1-3.392-1.412C138.442,11.627,138.891,7.12,138.9,7.081Z" transform="translate(-130.416)" fill="#707070"/>
      <path id="Path_10" data-name="Path 10" d="M63.176,267.45v-.02c0-.053-.007-.106-.007-.165-.04-1.307-.125-4.362-2.989-5.338l-.066-.02a19.04,19.04,0,0,1-5.477-2.494.891.891,0,0,0-1.023,1.458,20.552,20.552,0,0,0,6.025,2.752c1.538.548,1.709,2.191,1.755,3.7a1.325,1.325,0,0,0,.007.165,11.977,11.977,0,0,1-.139,2.039,24.285,24.285,0,0,1-11.634,2.706,24.424,24.424,0,0,1-11.64-2.712,11.339,11.339,0,0,1-.139-2.039c0-.053.007-.106.007-.165.046-1.5.218-3.148,1.755-3.7a20.743,20.743,0,0,0,6.025-2.752.891.891,0,0,0-1.023-1.458,18.831,18.831,0,0,1-5.477,2.494c-.026.007-.046.013-.066.02-2.864.983-2.95,4.038-2.989,5.338a1.326,1.326,0,0,1-.007.165v.02a10.119,10.119,0,0,0,.337,2.989.847.847,0,0,0,.343.416c.2.132,4.943,3.154,12.881,3.154s12.683-3.029,12.881-3.154a.883.883,0,0,0,.343-.416A10.617,10.617,0,0,0,63.176,267.45Z" transform="translate(-36.073 -242.137)" fill="#707070"/>
    </g>
  </g>
</svg>
