<svg xmlns="http://www.w3.org/2000/svg" width="204.644" height="193.237" viewBox="0 0 204.644 193.237">
  <g id="computer" transform="translate(-619 -252)">
    <path id="Path_2" data-name="Path 2" d="M93.9,68.018a2.8,2.8,0,1,0,4.408-3.44A34.4,34.4,0,0,0,60.151,53.171a2.8,2.8,0,1,0,1.789,5.294A28.8,28.8,0,0,1,93.9,68.018Z" transform="translate(650.103 268.974)" fill="#231b64"/>
    <path id="Path_3" data-name="Path 3" d="M58.443,54.792a34.6,34.6,0,0,0-6.227,6.169,2.8,2.8,0,1,0,4.408,3.449,28.98,28.98,0,0,1,5.218-5.171,2.8,2.8,0,0,0-3.4-4.437Z" transform="translate(642.019 272.582)" fill="#231b64"/>
    <path id="Path_4" data-name="Path 4" d="M119.77,67.111a2.8,2.8,0,1,0,4.408-3.44,48.892,48.892,0,0,0-77.112,0,2.8,2.8,0,0,0,4.406,3.44,43.3,43.3,0,0,1,68.3,0Z" transform="translate(635.704 260.934)" fill="#231b64"/>
    <path id="Path_5" data-name="Path 5" d="M90.841,58.8a2.8,2.8,0,0,0,4.408-3.44,64.819,64.819,0,0,0-10.993-11.04A2.8,2.8,0,0,0,80.8,48.7,59.271,59.271,0,0,1,90.841,58.8Z" transform="translate(676.928 259.659)" fill="#231b64"/>
    <path id="Path_6" data-name="Path 6" d="M119.463,50.017a2.8,2.8,0,1,0,2.568-4.968,64.517,64.517,0,0,0-80.44,17.656A2.8,2.8,0,0,0,46,66.145,58.926,58.926,0,0,1,119.463,50.017Z" transform="translate(628.882 252.307)" fill="#231b64"/>
    <path id="Path_7" data-name="Path 7" d="M59.019,69.289A11.311,11.311,0,1,0,70.33,57.978,11.311,11.311,0,0,0,59.019,69.289Zm17.03,0A5.719,5.719,0,1,1,70.33,63.57a5.719,5.719,0,0,1,5.719,5.719Z" transform="translate(651.166 277.175)" fill="#231b64"/>
    <path id="Path_8" data-name="Path 8" d="M208.667,20.8H172.017a2.8,2.8,0,1,0,0,5.592h36.649a8.651,8.651,0,0,1,8.642,8.642V150.6a8.651,8.651,0,0,1-8.642,8.642h-1.61V37.022a2.8,2.8,0,0,0-5.592,0V159.247H32.484a8.651,8.651,0,0,1-8.642-8.642V35.041a8.651,8.651,0,0,1,8.642-8.649h1.61V132.707a2.8,2.8,0,0,0,5.592,0V26.392H158.7a2.8,2.8,0,1,0,0-5.592H32.484A14.249,14.249,0,0,0,18.25,35.034V150.6a14.249,14.249,0,0,0,14.234,14.238H142.011v24.549H99.139V173.219a2.8,2.8,0,0,0-5.592,0v16.2A21.865,21.865,0,0,0,72.3,211.241a2.8,2.8,0,0,0,2.8,2.8h79.588a2.8,2.8,0,0,0,0-5.592H78.133a16.289,16.289,0,0,1,16.023-13.467h52.838a16.28,16.28,0,0,1,16.262,16.262,2.8,2.8,0,1,0,5.592,0A21.865,21.865,0,0,0,147.6,189.419v-24.58h61.06A14.249,14.249,0,0,0,222.894,150.6V35.041A14.249,14.249,0,0,0,208.667,20.8Z" transform="translate(600.75 231.2)" fill="#231b64"/>
    <path id="Path_9" data-name="Path 9" d="M28.129,76.584a2.8,2.8,0,0,0-2.8,2.8v2.492a2.8,2.8,0,1,0,5.592,0V79.38A2.8,2.8,0,0,0,28.129,76.584Z" transform="translate(609.509 300.183)" fill="#231b64"/>
  </g>
</svg>
