<svg xmlns="http://www.w3.org/2000/svg" width="178.27" height="193.237" viewBox="0 0 178.27 193.237">
  <g id="door-knob" transform="translate(-200 -252)">
    <path id="Path_15" data-name="Path 15" d="M215.6,227.226a3.408,3.408,0,1,1-3.362-2.847A3.136,3.136,0,0,1,215.6,227.226Zm0,0" transform="translate(84.043 112.305)" fill="#231b64"/>
    <path id="Path_16" data-name="Path 16" d="M208.7,169.4a3.507,3.507,0,0,0,2.869-1.374,2.6,2.6,0,0,0-1.144-3.883,36.83,36.83,0,0,0-32.842,0,2.6,2.6,0,0,0-1.144,3.883,3.706,3.706,0,0,0,4.59.969,29.114,29.114,0,0,1,25.953,0A3.792,3.792,0,0,0,208.7,169.4Zm0,0" transform="translate(102.285 152.213)" fill="#231b64"/>
    <path id="Path_17" data-name="Path 17" d="M210.481,199.783a3.508,3.508,0,0,0,2.871-1.374,2.6,2.6,0,0,0-1.146-3.885,20.326,20.326,0,0,0-18.111,0,2.6,2.6,0,0,0-1.146,3.885,3.7,3.7,0,0,0,4.588.97,12.6,12.6,0,0,1,11.227,0A3.783,3.783,0,0,0,210.481,199.783Zm0,0" transform="translate(93.134 132.217)" fill="#231b64"/>
    <path id="Path_18" data-name="Path 18" d="M164.7,24.2H85.831V14.932C85.831,6.7,77.916,0,68.187,0H18.142C8.414,0,.5,6.7.5,14.932V142c0,8.234,7.915,14.931,17.642,14.931H61.268v12.3a3.391,3.391,0,0,0,6.689,0v-60.51c0-3.444,3.31-6.245,7.379-6.245h3.8v3.22c0,4.9,4.708,8.881,10.495,8.881h14.3c5.787,0,10.493-3.983,10.493-8.881v-3.22h3.8c4.069,0,7.38,2.8,7.38,6.245v72.61c0,3.444-3.311,6.247-7.38,6.247H75.336c-4.069,0-7.379-2.8-7.379-6.247a3.391,3.391,0,0,0-6.689,0c0,6.566,6.311,11.908,14.068,11.908H118.23c7.758,0,14.069-5.341,14.069-11.908v-72.61c0-6.565-6.311-11.906-14.069-11.906h-32.4v-9.27a3.391,3.391,0,0,0-6.689,0v9.27h-3.8c-7.757,0-14.068,5.341-14.068,11.906V151.27H18.142c-6.041,0-10.953-4.159-10.953-9.27V14.931c0-5.111,4.914-9.27,10.953-9.27H68.187c6.041,0,10.953,4.159,10.953,9.27V24.2H67.766c-5.018-7.407-14.453-12.1-24.6-12.1C27.522,12.1,14.8,22.872,14.8,36.109S27.522,60.118,43.165,60.118c10.148,0,19.582-4.7,24.6-12.1H79.14v6.245a3.391,3.391,0,0,0,6.689,0V48.017H164.7c7.758,0,14.069-5.341,14.069-11.908S172.459,24.2,164.7,24.2Zm-56.964,81.491a3.552,3.552,0,0,1-3.8,3.22h-14.3a3.551,3.551,0,0,1-3.8-3.22v-3.22h21.908ZM164.7,42.356H57.464a3.121,3.121,0,0,0-3.344,2.831,3.121,3.121,0,0,0,3.344,2.831h2.148a23.561,23.561,0,0,1-16.447,6.44c-11.953,0-21.678-8.229-21.678-18.346s9.725-18.347,21.678-18.347A23.561,23.561,0,0,1,59.612,24.2H43.165C35.408,24.2,29.1,29.545,29.1,36.11s6.311,11.908,14.068,11.908a3.12,3.12,0,0,0,3.344-2.831,3.119,3.119,0,0,0-3.344-2.831c-4.069,0-7.379-2.8-7.379-6.247s3.31-6.245,7.379-6.245H164.7c4.069,0,7.38,2.8,7.38,6.245s-3.31,6.247-7.379,6.247Zm0,0" transform="translate(199.5 252)" fill="#231b64"/>
    <path id="Path_19" data-name="Path 19" d="M83.138,219.226a3.12,3.12,0,0,0,3.344-2.831v-6.711c4.151-1.185,7.151-4.508,7.151-8.417,0-4.9-4.708-8.881-10.495-8.881s-10.493,3.985-10.493,8.881c0,3.908,3,7.231,7.149,8.417V216.4A3.121,3.121,0,0,0,83.138,219.226Zm0-21.178a3.265,3.265,0,1,1-3.8,3.22A3.554,3.554,0,0,1,83.138,198.048Zm0,0" transform="translate(159.527 132.223)" fill="#231b64"/>
    <path id="Path_20" data-name="Path 20" d="M198.939,328.66a3.121,3.121,0,0,0-3.344,2.831v30.45h-.23c-5.787,0-10.493,3.984-10.493,8.881v3.025c0,4.9,4.707,8.881,10.493,8.881h7.149c5.787,0,10.493-3.984,10.493-8.881v-3.025c0-4.9-4.707-8.881-10.493-8.881h-.23V340.372h3.8a2.87,2.87,0,1,0,0-5.661h-3.8v-3.22a3.121,3.121,0,0,0-3.344-2.831Zm7.38,42.161v3.025a3.553,3.553,0,0,1-3.806,3.22h-7.149a3.553,3.553,0,0,1-3.8-3.22v-3.025a3.552,3.552,0,0,1,3.8-3.22h7.149A3.554,3.554,0,0,1,206.319,370.821Zm0,0" transform="translate(97.345 47.382)" fill="#231b64"/>
  </g>
</svg>
