<svg xmlns="http://www.w3.org/2000/svg" width="25.211" height="25.211" viewBox="0 0 25.211 25.211">
  <g id="magnifier" transform="translate(-774.999 -864.001)">
    <g id="Group_2" data-name="Group 2" transform="translate(774.999 864.001)">
      <path id="Path_1" data-name="Path 1" d="M305.362,302.027l-5.784-5.784a11.134,11.134,0,0,1-3.343,3.342l5.784,5.784a2.363,2.363,0,0,0,3.342-3.342Z" transform="translate(-280.844 -280.85)" fill="#fff"/>
      <path id="Path_2" data-name="Path 2" d="M18.909,9.454a9.454,9.454,0,1,0-9.454,9.454A9.455,9.455,0,0,0,18.909,9.454Zm-9.454,7.09a7.09,7.09,0,1,1,7.091-7.09A7.1,7.1,0,0,1,9.455,16.545Z" transform="translate(-0.001)" fill="#fff"/>
      <path id="Path_3" data-name="Path 3" d="M75.817,81.331h1.576a3.944,3.944,0,0,1,3.939-3.939V75.816A5.522,5.522,0,0,0,75.817,81.331Z" transform="translate(-71.878 -71.877)" fill="#fff"/>
    </g>
  </g>
</svg>
