<svg xmlns="http://www.w3.org/2000/svg" width="262.368" height="193.237" viewBox="0 0 262.368 193.237">
  <g id="wifi" transform="translate(-1456 -252)">
    <path id="Path_10" data-name="Path 10" d="M93.661,87.054a3.584,3.584,0,0,0,.1,5.07,18.492,18.492,0,1,1-12.809-5.161,3.584,3.584,0,1,0,0-7.168A25.66,25.66,0,1,0,98.73,86.962a3.581,3.581,0,0,0-5.07.092Z" transform="translate(1506.894 314.12)" fill="#231b64"/>
    <path id="Path_11" data-name="Path 11" d="M276.135,82.52A178.805,178.805,0,0,0,90.721,40.37a3.584,3.584,0,1,0,2.38,6.762,171.637,171.637,0,0,1,177.965,40.45,8.135,8.135,0,1,1-11.5,11.5,154.808,154.808,0,0,0-220.19,1.27,8.33,8.33,0,0,1-11.5.132,8.143,8.143,0,0,1-.132-11.5A172.937,172.937,0,0,1,60.71,62.6a3.584,3.584,0,1,0-3.756-6.1A180.1,180.1,0,0,0,22.608,83.983,15.3,15.3,0,1,0,44.5,105.374a147.639,147.639,0,0,1,210-1.21,15.3,15.3,0,1,0,21.641-21.641Z" transform="translate(1437.75 221.698)" fill="#231b64"/>
    <path id="Path_12" data-name="Path 12" d="M39.918,44.589a3.576,3.576,0,0,0,1.568-.364q1.6-.783,3.229-1.531a3.584,3.584,0,1,0-3-6.51q-1.694.781-3.372,1.6a3.584,3.584,0,0,0,1.574,6.807Z" transform="translate(1471.508 232.065)" fill="#231b64"/>
    <path id="Path_13" data-name="Path 13" d="M176.807,54.154a3.585,3.585,0,0,0-2.457,6.736A126.452,126.452,0,0,1,224.8,94.943,8.133,8.133,0,0,1,212.7,105.822a109.612,109.612,0,0,0-163,0,8.367,8.367,0,0,1-11.487.6,8.132,8.132,0,0,1-.6-11.487A125.787,125.787,0,0,1,159.253,56.413a3.584,3.584,0,1,0,1.6-6.985A132.947,132.947,0,0,0,32.293,90.145,15.3,15.3,0,0,0,55.04,110.619a102.444,102.444,0,0,1,152.339,0,15.2,15.2,0,0,0,10.572,5.047q.413.02.823.02a15.3,15.3,0,0,0,11.355-25.54,133.655,133.655,0,0,0-53.322-35.992Z" transform="translate(1456.639 251.14)" fill="#231b64"/>
    <path id="Path_14" data-name="Path 14" d="M111.161,62.569A86.6,86.6,0,0,0,51.144,87.082a3.584,3.584,0,1,0,5.01,5.127,78.552,78.552,0,0,1,118.317,9.565,8.132,8.132,0,1,1-13.1,9.629,62.314,62.314,0,0,0-100.422,0,8.133,8.133,0,0,1-13.1-9.643,3.585,3.585,0,1,0-5.775-4.25,15.306,15.306,0,0,0,12.293,24.373,15.483,15.483,0,0,0,2.334-.178,15.2,15.2,0,0,0,10.036-6.059,55.143,55.143,0,0,1,88.875,0,15.3,15.3,0,0,0,24.642-18.139A86.111,86.111,0,0,0,111.161,62.569Z" transform="translate(1476.685 281.954)" fill="#231b64"/>
  </g>
</svg>
