<svg xmlns="http://www.w3.org/2000/svg" width="32.432" height="32.425" viewBox="0 0 32.432 32.425">
  <g id="worldwide" transform="translate(-1606.834 -24.787)">
    <g id="Group_4" data-name="Group 4" transform="translate(1606.834 24.787)">
      <path id="Path_11" data-name="Path 11" d="M16.222.05A16.213,16.213,0,0,0,1.315,9.881l-.2.067.078.235A16.212,16.212,0,1,0,16.222.05ZM28.939,24.437l-.833-.832V21.667a.54.54,0,0,0-.054-.242l-2.108-4.209V15.182a.54.54,0,0,0-.24-.45l-1.621-1.081a.541.541,0,0,0-.432-.075l-1.986.5L18.33,12.642l-.459-3.214,1.272-1.271h2.73l.919,1.381a.54.54,0,0,0,.361.233l3.243.54a.536.536,0,0,0,.259-.021l2.986-1A15.078,15.078,0,0,1,28.939,24.437ZM26.71,5.375l-.879.586-2.45-.49-1.589-.529a.531.531,0,0,0-.3-.012l-2.009.5L18.6,5.139l.653-1.306h1.828a.54.54,0,0,0,.242-.057l1.87-.935A15.187,15.187,0,0,1,26.71,5.375ZM10.3,2.338l1.3.865a.54.54,0,0,0,.211.083l2.619.437-.256.765L12.8,4.942a.54.54,0,0,0-.292.234L10.96,7.763l-2.493,1.5-3.675.525a.54.54,0,0,0-.465.534v1.621a.54.54,0,0,0,.158.382l.923.923v.928l-2.248-1.5-.816-2.447A15.219,15.219,0,0,1,10.3,2.338ZM8.759,20.057l-2.443-.489-.908-1.811v-1.27l2.014-2.014.745,1.491a.541.541,0,0,0,.484.3h3.477l1.464,2.44a.54.54,0,0,0,.463.262h1.5l-.378,1.9-2.046,2.046a.541.541,0,0,0-.159.382v1.351L11.029,26.1a.541.541,0,0,0-.216.432v1.952l-.672-.223-.949-2.374v-5.3A.54.54,0,0,0,8.759,20.057ZM7.135,28.364a15.128,15.128,0,0,1-5.39-16.52l.449,1.347a.54.54,0,0,0,.212.279l2.694,1.8-.614.615a.54.54,0,0,0-.158.382v1.621a.54.54,0,0,0,.057.242l1.081,2.162a.541.541,0,0,0,.378.288l2.27.453V25.99a.541.541,0,0,0,.038.2l1.081,2.7a.541.541,0,0,0,.331.312l1.621.54a.531.531,0,0,0,.168.028.54.54,0,0,0,.54-.54V26.8l1.946-1.459a.541.541,0,0,0,.216-.432v-1.4l2-2a.541.541,0,0,0,.148-.276l.54-2.7a.54.54,0,0,0-.53-.646H14.361L12.9,15.444a.54.54,0,0,0-.463-.262H8.985l-.928-1.863a.54.54,0,0,0-.4-.292.53.53,0,0,0-.469.151l-.7.7V13.02a.54.54,0,0,0-.158-.382l-.923-.923v-.929l3.319-.474a.543.543,0,0,0,.2-.072l2.7-1.621a.54.54,0,0,0,.185-.185L13.335,5.9l1.432-.478a.535.535,0,0,0,.342-.342l.54-1.621a.541.541,0,0,0-.424-.7L12.1,2.239l-.55-.366a15.09,15.09,0,0,1,10.393.386l-.987.493H18.919a.54.54,0,0,0-.486.3L17.352,5.213a.541.541,0,0,0,.313.754l1.621.54a.531.531,0,0,0,.3.012l2.009-.5,1.472.49a.4.4,0,0,0,.065.017l2.7.54a.537.537,0,0,0,.406-.08l1.23-.82A15.246,15.246,0,0,1,29.1,8.336l-2.659.886-2.879-.48-.951-1.427a.54.54,0,0,0-.447-.24H18.919a.54.54,0,0,0-.382.158L16.916,8.855a.54.54,0,0,0-.153.459L17.3,13.1a.54.54,0,0,0,.324.42l3.783,1.621a.534.534,0,0,0,.344.028l1.93-.483,1.18.788v1.873a.54.54,0,0,0,.054.242l2.108,4.209v2.034a.54.54,0,0,0,.158.382l1.131,1.131A15.128,15.128,0,0,1,7.135,28.364Z" transform="translate(0 -0.05)" fill="#707070"/>
    </g>
  </g>
</svg>
